G04 #@! TF.GenerationSoftware,KiCad,Pcbnew,(5.1.4)-1*
G04 #@! TF.CreationDate,2019-08-22T19:01:38-07:00*
G04 #@! TF.ProjectId,connector,636f6e6e-6563-4746-9f72-2e6b69636164,rev?*
G04 #@! TF.SameCoordinates,Original*
G04 #@! TF.FileFunction,Soldermask,Top*
G04 #@! TF.FilePolarity,Negative*
%FSLAX46Y46*%
G04 Gerber Fmt 4.6, Leading zero omitted, Abs format (unit mm)*
G04 Created by KiCad (PCBNEW (5.1.4)-1) date 2019-08-22 19:01:38*
%MOMM*%
%LPD*%
G04 APERTURE LIST*
%ADD10C,0.100000*%
G04 APERTURE END LIST*
D10*
G36*
X136000443Y-133725519D02*
G01*
X136066627Y-133732037D01*
X136236466Y-133783557D01*
X136392991Y-133867222D01*
X136428729Y-133896552D01*
X136530186Y-133979814D01*
X136613448Y-134081271D01*
X136642778Y-134117009D01*
X136726443Y-134273534D01*
X136777963Y-134443373D01*
X136795359Y-134620000D01*
X136777963Y-134796627D01*
X136726443Y-134966466D01*
X136642778Y-135122991D01*
X136613448Y-135158729D01*
X136530186Y-135260186D01*
X136428729Y-135343448D01*
X136392991Y-135372778D01*
X136236466Y-135456443D01*
X136066627Y-135507963D01*
X136000443Y-135514481D01*
X135934260Y-135521000D01*
X135845740Y-135521000D01*
X135779557Y-135514481D01*
X135713373Y-135507963D01*
X135543534Y-135456443D01*
X135387009Y-135372778D01*
X135351271Y-135343448D01*
X135249814Y-135260186D01*
X135166552Y-135158729D01*
X135137222Y-135122991D01*
X135053557Y-134966466D01*
X135002037Y-134796627D01*
X134984641Y-134620000D01*
X135002037Y-134443373D01*
X135053557Y-134273534D01*
X135137222Y-134117009D01*
X135166552Y-134081271D01*
X135249814Y-133979814D01*
X135351271Y-133896552D01*
X135387009Y-133867222D01*
X135543534Y-133783557D01*
X135713373Y-133732037D01*
X135779557Y-133725519D01*
X135845740Y-133719000D01*
X135934260Y-133719000D01*
X136000443Y-133725519D01*
X136000443Y-133725519D01*
G37*
G36*
X134251000Y-135521000D02*
G01*
X132449000Y-135521000D01*
X132449000Y-133719000D01*
X134251000Y-133719000D01*
X134251000Y-135521000D01*
X134251000Y-135521000D01*
G37*
G36*
X138540443Y-133725519D02*
G01*
X138606627Y-133732037D01*
X138776466Y-133783557D01*
X138932991Y-133867222D01*
X138968729Y-133896552D01*
X139070186Y-133979814D01*
X139153448Y-134081271D01*
X139182778Y-134117009D01*
X139266443Y-134273534D01*
X139317963Y-134443373D01*
X139335359Y-134620000D01*
X139317963Y-134796627D01*
X139266443Y-134966466D01*
X139182778Y-135122991D01*
X139153448Y-135158729D01*
X139070186Y-135260186D01*
X138968729Y-135343448D01*
X138932991Y-135372778D01*
X138776466Y-135456443D01*
X138606627Y-135507963D01*
X138540443Y-135514481D01*
X138474260Y-135521000D01*
X138385740Y-135521000D01*
X138319557Y-135514481D01*
X138253373Y-135507963D01*
X138083534Y-135456443D01*
X137927009Y-135372778D01*
X137891271Y-135343448D01*
X137789814Y-135260186D01*
X137706552Y-135158729D01*
X137677222Y-135122991D01*
X137593557Y-134966466D01*
X137542037Y-134796627D01*
X137524641Y-134620000D01*
X137542037Y-134443373D01*
X137593557Y-134273534D01*
X137677222Y-134117009D01*
X137706552Y-134081271D01*
X137789814Y-133979814D01*
X137891271Y-133896552D01*
X137927009Y-133867222D01*
X138083534Y-133783557D01*
X138253373Y-133732037D01*
X138319557Y-133725519D01*
X138385740Y-133719000D01*
X138474260Y-133719000D01*
X138540443Y-133725519D01*
X138540443Y-133725519D01*
G37*
G36*
X136000442Y-129915518D02*
G01*
X136066627Y-129922037D01*
X136236466Y-129973557D01*
X136392991Y-130057222D01*
X136428729Y-130086552D01*
X136530186Y-130169814D01*
X136613448Y-130271271D01*
X136642778Y-130307009D01*
X136726443Y-130463534D01*
X136777963Y-130633373D01*
X136795359Y-130810000D01*
X136777963Y-130986627D01*
X136726443Y-131156466D01*
X136642778Y-131312991D01*
X136613448Y-131348729D01*
X136530186Y-131450186D01*
X136428729Y-131533448D01*
X136392991Y-131562778D01*
X136236466Y-131646443D01*
X136066627Y-131697963D01*
X136000443Y-131704481D01*
X135934260Y-131711000D01*
X135845740Y-131711000D01*
X135779557Y-131704481D01*
X135713373Y-131697963D01*
X135543534Y-131646443D01*
X135387009Y-131562778D01*
X135351271Y-131533448D01*
X135249814Y-131450186D01*
X135166552Y-131348729D01*
X135137222Y-131312991D01*
X135053557Y-131156466D01*
X135002037Y-130986627D01*
X134984641Y-130810000D01*
X135002037Y-130633373D01*
X135053557Y-130463534D01*
X135137222Y-130307009D01*
X135166552Y-130271271D01*
X135249814Y-130169814D01*
X135351271Y-130086552D01*
X135387009Y-130057222D01*
X135543534Y-129973557D01*
X135713373Y-129922037D01*
X135779558Y-129915518D01*
X135845740Y-129909000D01*
X135934260Y-129909000D01*
X136000442Y-129915518D01*
X136000442Y-129915518D01*
G37*
G36*
X134251000Y-131711000D02*
G01*
X132449000Y-131711000D01*
X132449000Y-129909000D01*
X134251000Y-129909000D01*
X134251000Y-131711000D01*
X134251000Y-131711000D01*
G37*
G36*
X138540442Y-129915518D02*
G01*
X138606627Y-129922037D01*
X138776466Y-129973557D01*
X138932991Y-130057222D01*
X138968729Y-130086552D01*
X139070186Y-130169814D01*
X139153448Y-130271271D01*
X139182778Y-130307009D01*
X139266443Y-130463534D01*
X139317963Y-130633373D01*
X139335359Y-130810000D01*
X139317963Y-130986627D01*
X139266443Y-131156466D01*
X139182778Y-131312991D01*
X139153448Y-131348729D01*
X139070186Y-131450186D01*
X138968729Y-131533448D01*
X138932991Y-131562778D01*
X138776466Y-131646443D01*
X138606627Y-131697963D01*
X138540443Y-131704481D01*
X138474260Y-131711000D01*
X138385740Y-131711000D01*
X138319557Y-131704481D01*
X138253373Y-131697963D01*
X138083534Y-131646443D01*
X137927009Y-131562778D01*
X137891271Y-131533448D01*
X137789814Y-131450186D01*
X137706552Y-131348729D01*
X137677222Y-131312991D01*
X137593557Y-131156466D01*
X137542037Y-130986627D01*
X137524641Y-130810000D01*
X137542037Y-130633373D01*
X137593557Y-130463534D01*
X137677222Y-130307009D01*
X137706552Y-130271271D01*
X137789814Y-130169814D01*
X137891271Y-130086552D01*
X137927009Y-130057222D01*
X138083534Y-129973557D01*
X138253373Y-129922037D01*
X138319558Y-129915518D01*
X138385740Y-129909000D01*
X138474260Y-129909000D01*
X138540442Y-129915518D01*
X138540442Y-129915518D01*
G37*
G36*
X138441000Y-109751000D02*
G01*
X137339000Y-109751000D01*
X137339000Y-106149000D01*
X138441000Y-106149000D01*
X138441000Y-109751000D01*
X138441000Y-109751000D01*
G37*
G36*
X136441000Y-109751000D02*
G01*
X135339000Y-109751000D01*
X135339000Y-106149000D01*
X136441000Y-106149000D01*
X136441000Y-109751000D01*
X136441000Y-109751000D01*
G37*
G36*
X134441000Y-109751000D02*
G01*
X133339000Y-109751000D01*
X133339000Y-106149000D01*
X134441000Y-106149000D01*
X134441000Y-109751000D01*
X134441000Y-109751000D01*
G37*
M02*
