G04 #@! TF.GenerationSoftware,KiCad,Pcbnew,(5.1.4)-1*
G04 #@! TF.CreationDate,2019-08-22T19:01:38-07:00*
G04 #@! TF.ProjectId,connector,636f6e6e-6563-4746-9f72-2e6b69636164,rev?*
G04 #@! TF.SameCoordinates,Original*
G04 #@! TF.FileFunction,Copper,L1,Top*
G04 #@! TF.FilePolarity,Positive*
%FSLAX46Y46*%
G04 Gerber Fmt 4.6, Leading zero omitted, Abs format (unit mm)*
G04 Created by KiCad (PCBNEW (5.1.4)-1) date 2019-08-22 19:01:38*
%MOMM*%
%LPD*%
G04 APERTURE LIST*
%ADD10O,1.700000X1.700000*%
%ADD11R,1.700000X1.700000*%
%ADD12R,1.000000X3.500000*%
%ADD13C,0.250000*%
G04 APERTURE END LIST*
D10*
X138430000Y-134620000D03*
X135890000Y-134620000D03*
D11*
X133350000Y-134620000D03*
D10*
X138430000Y-130810000D03*
X135890000Y-130810000D03*
D11*
X133350000Y-130810000D03*
D12*
X137890000Y-107950000D03*
X135890000Y-107950000D03*
X133890000Y-107950000D03*
D13*
X139279999Y-133770001D02*
X138430000Y-134620000D01*
X139605001Y-133444999D02*
X139279999Y-133770001D01*
X139605001Y-130245999D02*
X139605001Y-133444999D01*
X137890000Y-128530998D02*
X139605001Y-130245999D01*
X137890000Y-107950000D02*
X137890000Y-128530998D01*
X135890000Y-109200000D02*
X135890000Y-107950000D01*
X135890000Y-132549002D02*
X137065001Y-131374001D01*
X135890000Y-134620000D02*
X135890000Y-132549002D01*
X137065001Y-131374001D02*
X137065001Y-129191001D01*
X135890000Y-128016000D02*
X135890000Y-107950000D01*
X137065001Y-129191001D02*
X135890000Y-128016000D01*
X133890000Y-107950000D02*
X133890000Y-108680000D01*
X133350000Y-133520000D02*
X133350000Y-134620000D01*
X134525001Y-132344999D02*
X133350000Y-133520000D01*
X133890000Y-107950000D02*
X133890000Y-109200000D01*
X134525001Y-132344999D02*
X134525001Y-127921001D01*
X133890000Y-127286000D02*
X133890000Y-107950000D01*
X134525001Y-127921001D02*
X133890000Y-127286000D01*
X133350000Y-130556000D02*
X133858000Y-130048000D01*
X133350000Y-130810000D02*
X133350000Y-130556000D01*
M02*
